<?xml version="1.0" encoding="UTF-8"?><svg id="Logo" xmlns="http://www.w3.org/2000/svg" viewBox="0 0 2012.79 600"><defs><style>.cls-1{fill:#95ce5e;}.cls-2{fill:#509e35;}</style></defs><path class="cls-2" d="M1483.9,496.02h-89.41v-208.54h85.56c43.38,0,67.44,22.71,67.44,53.79,0,25.41-15.16,41.21-35.34,47.81,23.48,4.18,40.11,26,40.11,50.48,0,33.16-25.27,56.46-68.34,56.46h-.03Zm-9.8-174.76h-38.02v52.27h38.02c19.6,0,30.9-8.95,30.9-26s-11.28-26.28-30.9-26.28Zm2.96,84.53h-40.98v56.18h41.87c20.21,0,32.07-9.85,32.07-27.49s-12.78-28.69-32.97-28.69Z"/><path class="cls-2" d="M1658.55,498.68c-47.54,0-83.46-33.46-83.46-85.43s37.12-85.43,84.66-85.43,84.66,33.16,84.66,85.43-38.02,85.43-85.83,85.43h-.03Zm0-36.44c21.97,0,43.07-16.14,43.07-48.99s-20.49-48.99-42.49-48.99-41.87,15.83-41.87,48.99,19.01,48.99,41.28,48.99Z"/><path class="cls-2" d="M1832.04,444.61l-30.01,51.37h-44.55l53.76-83.04-54.35-82.46h46.92l33.55,51.1,30.28-51.1h44.55l-54.07,82.46,54.66,83.04h-46.92l-33.86-51.37h.03Z"/><path class="cls-2" d="M878.96,498.43c-57.8,0-105.03-43.66-105.03-105.63s47.23-105.32,105.03-105.32,104.72,43.66,104.72,105.32-46.64,105.63-104.72,105.63Zm0-36.87c36.97,0,62.48-26.84,62.48-68.76s-25.51-68.14-62.48-68.14-62.79,26.25-62.79,68.14,25.51,68.76,62.79,68.76Z"/><path class="cls-2" d="M1128.02,406.09c0-26.25-14.39-40.44-36.08-40.44s-36.66,14.16-36.66,40.44v90.29h-41.07v-163.45h41.07v20.36c10.57-13.88,28.16-22.71,48.99-22.71,37.83,0,64.82,24.79,64.82,69.94v95.9h-41.07v-90.33Z"/><path class="cls-2" d="M1279.11,499.02c-47.23,0-81.55-33.03-81.55-84.38s33.46-84.38,81.55-84.38,80.07,32.16,80.07,80.84c0,5.3-.31,10.63-1.17,15.93h-118.8c2.06,24.2,18.48,37.77,39,37.77,17.59,0,27.3-8.86,32.57-19.77h44.3c-8.81,30.09-35.8,53.98-75.97,53.98Zm-39.59-99.72h77.14c-.58-21.54-17.59-35.11-38.73-35.11-19.66,0-35.21,12.67-38.42,35.11Z"/><path class="cls-2" d="M622.93,499.97c27.5,0,49.78-22.39,49.78-50.02s-22.29-50.02-49.78-50.02-49.78,22.4-49.78,50.02,22.29,50.02,49.78,50.02Z"/><path class="cls-1" d="M243.76,148.16c-15.24,13.22-28.7,28.97-39.74,47.11-.91,1.48-1.77,2.96-2.64,4.48-.87,1.48-1.69,2.96-2.47,4.48-8.31,15.31-14.42,31.27-18.44,47.46-1.9,.13-3.85,.22-5.8,.22-41.21-.04-74.67-33.67-74.67-75.08s33.46-75.08,74.72-75.08c31.17,0,57.88,19.18,69.09,46.46l-.04-.04Z"/><path class="cls-1" d="M546.44,399.92c41.25-71.81,16.75-163.64-54.72-205.05-15.11-8.79-31.13-14.61-47.36-17.62-60.52-11.31-124.2,15.96-156.71,72.55-32.51,56.59-24.2,125.66,15.8,172.64,10.74,12.61,23.72,23.66,38.87,32.4,69.96,40.59,159.04,17.88,201.47-50.5-56.19,92.3-175.67,123.23-269.47,68.81-78.7-45.67-114.67-137.1-93.81-221.53,.91-.09,1.77-.17,2.68-.26,37.27-4.22,66.23-36.02,66.23-74.6,0-8.79-1.52-17.22-4.24-25.05-.43-1.22-.91-2.39-1.39-3.57,62.34-54.02,154.33-65.42,229.69-21.71,95.28,55.28,127.92,177.69,72.9,273.42l.04,.04Z"/><path class="cls-2" d="M249.39,176.83c0,38.58-28.96,70.34-66.23,74.6-.91,.09-1.77,.17-2.68,.26,4.03-16.18,10.09-32.14,18.44-47.46,.78-1.52,1.6-3,2.47-4.48,.87-1.52,1.73-3,2.64-4.48,11.04-18.14,24.5-33.88,39.74-47.11,.48,1.17,.95,2.35,1.39,3.57,2.77,7.83,4.24,16.27,4.24,25.05v.04Z"/><path class="cls-2" d="M546.44,399.92c-.86,1.52-1.73,3-2.64,4.48-42.42,68.33-131.47,91.08-201.47,50.5-15.11-8.78-28.14-19.79-38.87-32.4,60.52,11.31,124.2-15.96,156.71-72.55,32.51-56.59,24.2-125.66-15.8-172.64,16.23,3.04,32.25,8.83,47.36,17.62,71.47,41.45,95.97,133.28,54.72,205.05v-.04Z"/><path class="cls-2" d="M799.54,152.87v81.9h-19.52v-98.26h49.14v-10.05h-54.52v-17.07h54.52v-9.78h20.54v9.78h53.94v17.07h-53.94v10.05h49.14v75.87c0,8.69-1.47,14.37-4.4,17.07-2.94,2.79-7.96,4.14-15.16,4.14h-15.43l-3.38-18.2,13.74,.59c3.38,0,5.11-1.53,5.11-4.6v-58.52h-79.77Zm44.33,19.37c3.69-6.22,6.22-12.25,7.65-18.07l17.7,4.14c-1.69,5.18-3.82,9.82-6.36,13.92h11.74v15.05h-25.48v9.6h22.63v14.91h-22.63v18.52h-19.12v-18.52h-23.21v-14.91h23.21v-9.6h-26.06v-15.05h13.03c-1.78-5.27-4.14-9.96-7.07-14.06l18.14-3.6c2.84,5.18,5.2,11.04,7.07,17.66h8.76Z"/><path class="cls-2" d="M923.08,152.46h112.28v21.35h-112.28v-21.35Z"/><path class="cls-2" d="M1837.23,167.55c-4.6-1.06-8.56,.35-11.92,4.38-3.36,3.98-6.04,10.43-8.06,19.25-1.93,8.62-2.28,15.47-.99,20.61,1.29,5.14,4.06,8.21,8.41,9.27,4.6,1.11,8.61-.35,11.92-4.28,3.36-3.93,6.03-10.38,8.06-19.3,1.98-8.67,2.32-15.57,1.09-20.66-1.24-5.09-4.1-8.16-8.46-9.17l-.05-.1Z"/><path class="cls-2" d="M1912.26,165.28l-15.68-21.57-187.15-44.1-23.84,14.26-20.33,89.61,15.68,21.57,160.1,37.75-6.43,28.32,34.28-21.77-.79-.2,23.84-14.26,20.33-89.61Zm-140.41-2.82c-.99,4.33-3.07,8.42-6.33,12.25-3.22,3.88-9.4,9.12-18.5,15.82l-11.18,8.37,26.36,6.2-2.08,9.17-46.49-10.94,33.09-25.5c4.11-3.18,7.27-6.1,9.45-8.77,2.18-2.62,3.51-5.19,4.06-7.66,.79-3.53,.4-6.5-1.19-9.02-1.58-2.47-4.15-4.13-7.67-4.99-3.16-.76-5.98-.35-8.51,1.16-2.52,1.51-4.25,3.88-5.24,7.11l-10.83-2.57c1.43-6.35,4.7-10.94,9.69-13.71,5.05-2.77,11.08-3.38,18.1-1.71,6.68,1.56,11.57,4.59,14.64,9.02,3.06,4.44,3.91,9.68,2.57,15.72l.05,.05Zm17.56,53.07c-.4,1.76-1.33,3.07-2.82,3.98-1.48,.91-3.06,1.21-4.8,.76-1.73-.4-3.06-1.36-4-2.87-.94-1.46-1.19-3.12-.79-4.84,.4-1.76,1.34-3.12,2.82-4.13,1.49-.96,3.12-1.26,4.85-.86,1.73,.4,3.07,1.41,4.01,2.92,.89,1.51,1.19,3.17,.74,4.94v.1Zm66.27-14.56c-2.57,11.24-6.78,19.5-12.66,24.8-5.89,5.29-12.71,7.06-20.48,5.19-7.86-1.86-13.25-6.5-16.17-13.96-2.92-7.46-3.07-16.98-.4-28.63,2.62-11.54,6.88-19.96,12.76-25.35,5.88-5.39,12.76-7.16,20.63-5.29,7.96,1.86,13.35,6.55,16.17,14.01,2.82,7.46,2.87,17.19,.15,29.23Z"/></svg>