<?xml version="1.0" encoding="UTF-8"?><svg id="Logo" xmlns="http://www.w3.org/2000/svg" viewBox="0 0 2338.43 600"><defs><style>.cls-1{fill:#ec7963;}.cls-2{fill:#ffb2a3;}</style></defs><g><circle class="cls-1" cx="623.59" cy="448.93" r="49.86"/><path class="cls-2" d="M244.01,148.25c-15.27,13.17-28.75,28.88-39.78,46.93-.91,1.48-1.79,2.95-2.66,4.45-.85,1.47-1.68,2.95-2.47,4.45-8.33,15.25-14.44,31.14-18.45,47.28-1.91,.12-3.84,.21-5.8,.21-41.3,0-74.79-33.49-74.79-74.79s33.49-74.79,74.79-74.79c31.2,0,57.94,19.11,69.16,46.27Z"/><path class="cls-2" d="M547.01,399.07c41.3-71.55,16.79-163.02-54.76-204.32-15.15-8.75-31.16-14.54-47.43-17.55-60.58-11.28-124.34,15.89-156.89,72.3-32.55,56.4-24.22,125.19,15.83,172.02,10.74,12.57,23.77,23.56,38.91,32.3,70.05,40.45,159.22,17.8,201.68-50.3-56.24,91.95-175.88,122.76-269.78,68.56-78.8-45.5-114.8-136.62-93.92-220.71,.89-.08,1.79-.17,2.68-.27,37.31-4.22,66.31-35.88,66.31-74.31,0-8.75-1.5-17.16-4.26-24.97-.44-1.21-.89-2.39-1.37-3.55,62.45-53.85,154.54-65.19,230-21.63,95.4,55.07,128.08,177.04,73,272.44Z"/><path class="cls-1" d="M249.64,176.78c0,38.43-29,70.09-66.31,74.31-.89,.1-1.79,.19-2.68,.27,4.01-16.14,10.12-32.03,18.45-47.28,.79-1.5,1.62-2.97,2.47-4.45,.87-1.5,1.75-2.97,2.66-4.45,11.03-18.05,24.51-33.76,39.78-46.93,.48,1.16,.93,2.35,1.37,3.55,2.76,7.81,4.26,16.23,4.26,24.97Z"/><path class="cls-1" d="M547.01,399.07c-.87,1.5-1.75,2.97-2.66,4.45-42.46,68.1-131.63,90.75-201.68,50.3-15.15-8.75-28.17-19.74-38.91-32.3,60.58,11.28,124.34-15.89,156.89-72.3,32.55-56.4,24.22-125.19-15.83-172.02,16.27,3.01,32.28,8.81,47.43,17.55,71.55,41.3,96.06,132.77,54.76,204.32Z"/></g><g><path class="cls-1" d="M892.65,423.86c-65.38,0-118.41-49.03-118.41-118.74s53.03-118.41,118.41-118.41,118.41,49.03,118.41,118.41-52.37,118.74-118.41,118.74Zm0-33.02c46.03,0,79.38-33.35,79.38-85.72s-33.36-85.06-79.38-85.06-79.38,32.69-79.38,85.06,33.36,85.72,79.38,85.72Z"/><path class="cls-1" d="M1178.83,318.8c0-33.69-18.34-51.03-46.03-51.03s-46.36,17.35-46.36,51.03v102.73h-38.03V237.74h38.03v21.02c12.34-15.01,32.69-24.02,54.7-24.02,43.03,0,75.38,27.02,75.38,78.38v108.4h-37.69v-102.73Z"/><path class="cls-1" d="M1343.94,424.53c-52.7,0-91.73-37.36-91.73-95.06s37.36-94.73,91.73-94.73,89.39,36.36,89.39,90.39c0,6.34-.33,12.34-1.33,18.68h-140.42c2.67,30.35,24.35,48.7,52.37,48.7,23.35,0,36.36-11.34,43.36-25.68h41.03c-10.34,32.02-39.36,57.7-84.39,57.7Zm-52.03-111.41h101.73c-.67-28.35-23.02-46.36-51.37-46.36-25.68,0-46.36,17.34-50.36,46.36Z"/></g><g><path class="cls-1" d="M1564.46,422.64h-89.17V199.71h85c47.15,0,72.17,25.98,72.17,57.42,0,26.94-16.36,43.3-37.85,51,23.74,4.17,42.98,27.91,42.98,54.53,0,34-27.58,59.98-73.13,59.98Zm-7.38-193.09h-45.23v63.83h45.23c23.74,0,38.17-11.23,38.17-31.75s-14.43-32.08-38.17-32.08Zm2.89,93.66h-48.11v69.6h49.4c24.7,0,39.77-12.51,39.77-34s-16.68-35.6-41.06-35.6Z"/><path class="cls-1" d="M1754.02,425.53c-50.36,0-88.53-35.92-88.53-91.42s39.77-91.09,90.13-91.09,90.13,35.6,90.13,91.09-41.06,91.42-91.74,91.42Zm0-31.75c27.26,0,54.21-19.57,54.21-59.66s-25.98-59.34-53.25-59.34-52.28,19.25-52.28,59.34,23.74,59.66,51.32,59.66Z"/><path class="cls-1" d="M1958.65,425.53c-50.36,0-88.53-35.92-88.53-91.42s39.77-91.09,90.13-91.09,90.13,35.6,90.13,91.09-41.06,91.42-91.74,91.42Zm0-31.75c27.26,0,54.21-19.57,54.21-59.66s-25.98-59.34-53.25-59.34-52.28,19.25-52.28,59.34,23.74,59.66,51.32,59.66Z"/><path class="cls-1" d="M2086.63,185.28h36.57v137.92l64.15-77.3h50.68l-81.47,88.53,81.47,88.21h-49.4l-65.43-76.02v76.02h-36.57V185.28Z"/></g></svg>